<?xml version="1.0" encoding="UTF-8"?>
<svg version="1.1" xmlns="http://www.w3.org/2000/svg" width="322" height="324">
<path d="M0 0 C106.26 0 212.52 0 322 0 C322 106.92 322 213.84 322 324 C215.74 324 109.48 324 0 324 C0 217.08 0 110.16 0 0 Z " fill="#FDFAEC" transform="translate(0,0)"/>
<path d="M0 0 C1.65 0 3.3 0 5 0 C8.14607845 6.42107035 10.13427401 12.7204574 11.6875 19.6875 C11.89955078 20.59822266 12.11160156 21.50894531 12.33007812 22.44726562 C12.90868094 24.96062865 13.46127574 27.47782788 14 30 C14.20625 30.96292969 14.4125 31.92585938 14.625 32.91796875 C17.19183136 54.01411401 15.4593795 83.77062796 3 102 C2.525625 102.46664062 2.05125 102.93328125 1.5625 103.4140625 C-0.75009659 105.76134804 -2.29113571 108.57922959 -4 111.375 C-14.49040129 128.00544113 -28.87887127 142.73484016 -44.2890625 154.859375 C-47.44676993 157.35278087 -50.50343155 159.9498974 -53.5625 162.5625 C-58.20662182 166.51539417 -62.92002162 170.36099587 -67.70703125 174.140625 C-70.70450636 176.57128625 -73.56388779 179.1406183 -76.40625 181.75 C-78 183 -78 183 -80 183 C-80 183.66 -80 184.32 -80 185 C-81.36328125 186.26953125 -81.36328125 186.26953125 -83.3125 187.8125 C-91.47047864 194.77591748 -98.73243106 202.68136124 -102 213 C-102.91835087 214.46336622 -103.88074307 215.89960857 -104.875 217.3125 C-112.54827007 228.4024749 -115.39364593 239.47674625 -115.3125 252.8125 C-115.30686035 253.78445312 -115.3012207 254.75640625 -115.29541016 255.7578125 C-115.17499531 262.88255624 -114.50347463 269.28014704 -112 276 C-111.57460937 277.14726562 -111.14921875 278.29453125 -110.7109375 279.4765625 C-107.28646512 288.02858711 -102.49340048 299.94799653 -93.58984375 304.1328125 C-92.71457031 304.46023438 -91.83929688 304.78765625 -90.9375 305.125 C-86.03636364 306.98181818 -86.03636364 306.98181818 -84 308 C-84.4021875 306.88625 -84.4021875 306.88625 -84.8125 305.75 C-85.4003125 303.89375 -85.4003125 303.89375 -86 302 C-86.26425781 301.21882813 -86.52851562 300.43765625 -86.80078125 299.6328125 C-91.32757946 284.48627443 -89.80236515 268.83222286 -85 254 C-84.63777344 252.84757813 -84.27554688 251.69515625 -83.90234375 250.5078125 C-81.1597788 242.60550671 -77.18234797 236.5126825 -72 230 C-71.11441406 228.7934375 -71.11441406 228.7934375 -70.2109375 227.5625 C-66.82233242 222.98246756 -63.23946946 219.21580891 -58.859375 215.57421875 C-57.17171581 214.14538124 -55.64846004 212.66213305 -54.125 211.0625 C-52 209 -52 209 -50 209 C-49.67 208.01 -49.34 207.02 -49 206 C-47.30339084 204.47988374 -45.54321964 203.02984854 -43.75 201.625 C-39.9105697 198.60533995 -36.42275009 195.48337852 -33 192 C-31.49005653 190.6130502 -29.969024 189.23808227 -28.4375 187.875 C-27.57382813 187.10027344 -26.71015625 186.32554687 -25.8203125 185.52734375 C-24.37535011 184.23248133 -22.93029351 182.93772199 -21.48339844 181.64501953 C-15.83354026 176.58642558 -10.34744044 171.53335979 -5.45703125 165.71484375 C-2.94326 162.75627652 -0.15883726 160.07299746 2.6875 157.4375 C4.12190331 155.99775638 4.12190331 155.99775638 5.0625 153.875 C6 152 6 152 8 151 C8.71004484 149.34182406 9.41559046 147.68152535 10.09423828 146.01025391 C11.67100414 142.51076872 13.83797305 139.39077382 15.9375 136.1875 C19.68956983 130.34582424 22.85892001 124.6469349 25 118 C25.66 118 26.32 118 27 118 C27.62719862 115.37550869 28.25178978 112.75043881 28.875 110.125 C29.04902344 109.39796875 29.22304687 108.6709375 29.40234375 107.921875 C31.65437397 98.41330297 33.33092219 89.12523413 34.125 79.375 C34.25455078 77.86873047 34.25455078 77.86873047 34.38671875 76.33203125 C34.59617283 73.88840034 34.80051757 71.44446159 35 69 C35.66 69 36.32 69 37 69 C39.03165952 73.33420699 39.52060632 77.28596212 40 82 C40.66 82 41.32 82 42 82 C42.65268078 85.45707638 43.29584965 88.91586077 43.9375 92.375 C44.11990234 93.34050781 44.30230469 94.30601563 44.49023438 95.30078125 C44.66748047 96.26113281 44.84472656 97.22148438 45.02734375 98.2109375 C45.18968506 99.08024902 45.35202637 99.94956055 45.51928711 100.84521484 C46.79813601 109.23794492 47.1691335 117.53305404 47.203125 126.015625 C47.20882507 127.14788513 47.21452515 128.28014526 47.22039795 129.44671631 C47.22979974 131.83686403 47.23636262 134.22702443 47.24023438 136.6171875 C47.24986065 140.19816024 47.28089857 143.77853844 47.3125 147.359375 C47.36402832 158.55961722 47.10115056 169.5590985 45.609375 180.671875 C45.48427551 181.60582092 45.35917603 182.53976685 45.23028564 183.50201416 C44.50955642 188.26967942 44.50955642 188.26967942 44 190 C43.34 190.33 42.68 190.66 42 191 C41.48590186 193.23749398 41.48590186 193.23749398 41.1875 196 C39.04014642 209.83485819 34.46033476 221.89173438 27.92822266 234.20458984 C26.16249754 237.61993505 24.64209236 241.14538395 23.10546875 244.66796875 C21.19425423 248.69975344 19.14224282 251.86538398 16 255 C14.39026038 257.21479909 12.81146959 259.43938683 11.25 261.6875 C7.44611354 267.08803686 3.46568631 272.12639042 -1 277 C-2.0632714 278.2493439 -3.12574106 279.49937048 -4.1875 280.75 C-12.51437537 290.21066867 -21.36231515 299.13921303 -32 306 C-32.66 306 -33.32 306 -34 306 C-34 306.66 -34 307.32 -34 308 C-40.75 312 -40.75 312 -43 312 C-43 312.66 -43 313.32 -43 314 C-47.1098144 317.04974322 -51.64686521 318.26712809 -56.5 319.625 C-57.24636719 319.8415625 -57.99273437 320.058125 -58.76171875 320.28125 C-78.70489491 325.99947042 -98.98515197 322.74766479 -118 315 C-119.36318255 314.04108858 -120.70151583 313.04485244 -122 312 C-123.39865996 311.23686254 -124.81546735 310.50585745 -126.25 309.8125 C-127.30960938 309.29623047 -127.30960938 309.29623047 -128.390625 308.76953125 C-128.92171875 308.51558594 -129.4528125 308.26164062 -130 308 C-130 307.34 -130 306.68 -130 306 C-130.69738281 305.78085937 -131.39476562 305.56171875 -132.11328125 305.3359375 C-135.71274399 303.67015096 -138.33661633 301.31866112 -141.1875 298.625 C-141.75557373 298.09116699 -142.32364746 297.55733398 -142.90893555 297.00732422 C-163.32510297 277.4823046 -173.52878357 254.08295894 -174.3203125 225.8515625 C-174.37874139 222.85944357 -174.40995407 219.86753759 -174.4375 216.875 C-174.44971588 216.16073853 -174.46193176 215.44647705 -174.47451782 214.71057129 C-174.62993215 203.90811366 -173.06224534 194.35475519 -170 184 C-169.34 184 -168.68 184 -168 184 C-168 183.01 -168 182.02 -168 181 C-167.34 181 -166.68 181 -166 181 C-166.103125 180.195625 -166.20625 179.39125 -166.3125 178.5625 C-165.8529811 173.32398454 -163.37186047 168.33265617 -159.58203125 164.60546875 C-157.82478732 162.92995376 -157.82478732 162.92995376 -156.234375 160.27734375 C-153.55807779 156.35179593 -150.50824976 153.00771995 -147.25 149.5625 C-146.62963867 148.90306396 -146.00927734 148.24362793 -145.37011719 147.56420898 C-136.1987513 137.90075022 -136.1987513 137.90075022 -132 135 C-131.34 135 -130.68 135 -130 135 C-129.67 134.01 -129.34 133.02 -129 132 C-127.07421875 130.53515625 -127.07421875 130.53515625 -124.6875 129.0625 C-121.3354974 126.98481244 -118.76985882 124.79594036 -116 122 C-114.06301536 120.45206783 -112.10208633 118.93387332 -110.125 117.4375 C-108.96435057 116.55403296 -107.80421217 115.66989422 -106.64453125 114.78515625 C-106.04592285 114.32898926 -105.44731445 113.87282227 -104.83056641 113.40283203 C-92.36461187 103.84970123 -80.09247219 94.01999186 -68 84 C-66.81083984 83.01773438 -66.81083984 83.01773438 -65.59765625 82.015625 C-64.88480469 81.41234375 -64.17195313 80.8090625 -63.4375 80.1875 C-62.81746094 79.66542969 -62.19742188 79.14335938 -61.55859375 78.60546875 C-59.88130204 77.05952455 -59.88130204 77.05952455 -59.03515625 74.86328125 C-58.52275391 73.94095703 -58.52275391 73.94095703 -58 73 C-57.40952881 72.88213135 -56.81905762 72.7642627 -56.21069336 72.64282227 C-53.16961094 71.75854065 -51.79154729 70.11408426 -49.59375 67.8515625 C-48.76746094 67.01109375 -47.94117188 66.170625 -47.08984375 65.3046875 C-46.23519531 64.42039062 -45.38054687 63.53609375 -44.5 62.625 C-42.80431813 60.8858391 -41.1064814 59.14877597 -39.40625 57.4140625 C-38.65666016 56.6401416 -37.90707031 55.8662207 -37.13476562 55.06884766 C-35 53 -35 53 -32.83007812 51.40771484 C-30.58894584 49.68381293 -29.63857713 47.67341131 -28.32421875 45.2109375 C-26.62269637 42.37004763 -24.64068219 39.81430191 -22.625 37.1875 C-19.10384404 32.58157277 -16.02207918 27.91978247 -13.19140625 22.86328125 C-12 21 -12 21 -10 20 C-9.32256802 18.13706206 -8.64839187 16.27286444 -7.9921875 14.40234375 C-6.47789161 10.73583993 -4.39636474 7.46281498 -2.3046875 4.1015625 C-0.98780659 2.05212084 -0.98780659 2.05212084 0 0 Z " fill="#080A08" transform="translate(210,0)"/>
<path d="M0 0 C0.33 0 0.66 0 1 0 C1.82737893 26.75191886 -5.43112085 50.46852554 -23 71 C-23.55429688 71.66515625 -24.10859375 72.3303125 -24.6796875 73.015625 C-32.90059743 82.69191133 -42.04069576 91.15108533 -52 99 C-53.70863939 100.37461966 -55.41698121 101.74960929 -57.125 103.125 C-61.07740904 106.28314502 -65.069826 109.38547504 -69.08984375 112.45703125 C-71.02197721 113.95108746 -71.02197721 113.95108746 -72.62890625 115.69921875 C-74 117 -74 117 -76 117 C-76.2475 117.598125 -76.495 118.19625 -76.75 118.8125 C-78.18072525 121.31626919 -79.5691582 122.48072388 -82 124 C-82.66 124 -83.32 124 -84 124 C-84.66 125.32 -85.32 126.64 -86 128 C-86.66 128 -87.32 128 -88 128 C-88.33 128.99 -88.66 129.98 -89 131 C-89.66 131 -90.32 131 -91 131 C-91.2475 131.57234375 -91.495 132.1446875 -91.75 132.734375 C-93.19316199 135.35010611 -94.88216222 137.14773456 -97 139.25 C-97.70125 139.95640625 -98.4025 140.6628125 -99.125 141.390625 C-101 143 -101 143 -103 143 C-103.21914062 143.51949219 -103.43828125 144.03898438 -103.6640625 144.57421875 C-105.8886313 148.61356735 -108.92806413 152.03864948 -111.8359375 155.60351562 C-116.16750986 161.0003252 -119.59156618 166.46282248 -122 173 C-123.16815103 176.04915013 -124.39246576 178.796862 -126.125 181.5625 C-132.64044482 193.50748217 -132.05490206 211.90012803 -128.69140625 224.71484375 C-127.32864489 229.22353634 -125.68966387 233.60500174 -124 238 C-123.64940149 239.32889788 -123.31135781 240.66136443 -123 242 C-127 242 -127 242 -128.9296875 240.15625 C-133.9382349 233.31726961 -136.87996691 226.74191353 -139.62109375 218.77734375 C-140.71308446 215.6464559 -142.08642356 212.8760957 -143.75 210 C-152.41440997 193.20051701 -149.40491154 166.4052055 -144 149 C-142.60543305 145.45924886 -140.90272905 142.28545761 -139 139 C-138.66742188 138.22140625 -138.33484375 137.4428125 -137.9921875 136.640625 C-134.39818183 128.28123402 -128.29797065 122.38284896 -122 116 C-121.4735791 115.45988281 -120.9471582 114.91976562 -120.40478516 114.36328125 C-112.04950548 105.79269943 -103.25580733 97.95977189 -94 90.375 C-92.90631104 89.47648315 -92.90631104 89.47648315 -91.79052734 88.55981445 C-86.08618276 83.87827126 -80.36629592 79.21579742 -74.63037109 74.57299805 C-71.61259952 72.12973313 -68.60385536 69.67813441 -65.625 67.1875 C-64.635 66.3625 -63.645 65.5375 -62.625 64.6875 C-61.34496094 63.61048828 -61.34496094 63.61048828 -60.0390625 62.51171875 C-58 61 -58 61 -56 61 C-55.67 60.01 -55.34 59.02 -55 58 C-53.44018555 56.46142578 -53.44018555 56.46142578 -51.44921875 54.8203125 C-47.00643579 51.05013816 -42.90524204 47.01865654 -38.8125 42.875 C-38.12736328 42.18535156 -37.44222656 41.49570313 -36.73632812 40.78515625 C-35.41046749 39.45036296 -34.08578928 38.11439382 -32.76245117 36.77709961 C-31.29906251 35.30154814 -29.82647355 33.83512787 -28.3515625 32.37109375 C-25.69763239 29.69512103 -23.11400098 26.96065647 -20.5625 24.1875 C-20.08022949 23.66341553 -19.59795898 23.13933105 -19.10107422 22.59936523 C-15.92243362 19.10736017 -13.02373905 15.5078727 -10.265625 11.671875 C-8.40639951 9.21586109 -6.20344737 7.14546191 -4 5 C-2.88625 3.6078125 -2.88625 3.6078125 -1.75 2.1875 C-1.1725 1.465625 -0.595 0.74375 0 0 Z " fill="#F9F7E9" transform="translate(205,43)"/>
<path d="M0 0 C0.33 0 0.66 0 1 0 C1.27289722 7.02710329 0.22312164 13.59101559 -1 20.5 C-1.28617188 22.16289062 -1.28617188 22.16289062 -1.578125 23.859375 C-2.04616414 26.57400201 -2.52025883 29.28742095 -3 32 C-3.66 32 -4.32 32 -5 32 C-5.185625 33.8871875 -5.185625 33.8871875 -5.375 35.8125 C-5.97361805 41.26079179 -6.96426426 46.62020754 -8 52 C-8.66 52 -9.32 52 -10 52 C-10.0825 52.78375 -10.165 53.5675 -10.25 54.375 C-11.24752565 59.19637397 -13.09481326 63.47358319 -15 68 C-15.38414062 68.95390625 -15.76828125 69.9078125 -16.1640625 70.890625 C-19.0953433 78.11481381 -22.42589729 85.0728731 -26 92 C-26.66 92 -27.32 92 -28 92 C-28.2784375 92.721875 -28.556875 93.44375 -28.84375 94.1875 C-33.402904 105.27733405 -40.48427354 114.4957921 -48.1796875 123.5703125 C-50.09248724 125.88681637 -50.09248724 125.88681637 -50.94921875 128.53125 C-52.31035401 131.72915887 -54.1776835 133.25625821 -56.8125 135.5 C-63.37203952 141.1366391 -69.08050042 147.28626509 -74.79296875 153.76953125 C-75.52128906 154.50558594 -76.24960938 155.24164063 -77 156 C-77.66 156 -78.32 156 -79 156 C-79.66 157.98 -80.32 159.96 -81 162 C-88.23095703 161.63232422 -88.23095703 161.63232422 -91.8125 158.6875 C-92.8953125 157.3571875 -92.8953125 157.3571875 -94 156 C-94.556875 155.401875 -95.11375 154.80375 -95.6875 154.1875 C-99.11827562 148.46954064 -99.36172218 141.74873457 -99.3125 135.25 C-99.30686035 134.46286621 -99.3012207 133.67573242 -99.29541016 132.86474609 C-98.82137954 109.90946165 -85.24865928 94.65701235 -69.57128906 79.49609375 C-67.12325386 77.16521126 -64.60414511 74.93350919 -62.03125 72.7421875 C-54.61465756 66.38103322 -47.54724462 59.64184349 -40.625 52.75 C-40.05442871 52.184021 -39.48385742 51.61804199 -38.89599609 51.03491211 C-35.532611 47.65923035 -32.38884641 44.17945308 -29.37255859 40.48925781 C-28 39 -28 39 -25 37 C-24.03955446 35.34405941 -23.08390397 33.68487548 -22.16796875 32.00390625 C-19.64421418 27.67385242 -16.65061657 23.50056052 -12.9375 20.125 C-10.34180609 17.27810991 -9.01996617 14.07673043 -7.3671875 10.6171875 C-5.35290497 6.76127522 -2.87959345 3.26232423 0 0 Z " fill="#FAF8EA" transform="translate(240,144)"/>
<path d="M0 0 C0.33 1.32 0.66 2.64 1 4 C-0.0828125 4.8353125 -0.0828125 4.8353125 -1.1875 5.6875 C-3.99190834 7.91706045 -3.99190834 7.91706045 -6.3125 10.3125 C-8.54080006 12.54080006 -10.7913806 14.69645754 -13.125 16.8125 C-13.78757813 17.41707031 -14.45015625 18.02164063 -15.1328125 18.64453125 C-17 20 -17 20 -20 20 C-20 20.99 -20 21.98 -20 23 C-22.3125 25.5 -22.3125 25.5 -25 28 C-25.804375 28.8971875 -25.804375 28.8971875 -26.625 29.8125 C-28 31 -28 31 -31 31 C-29.64941886 27.98611927 -28.14395225 25.8965323 -25.8046875 23.57421875 C-25.1748999 22.94563965 -24.5451123 22.31706055 -23.89624023 21.66943359 C-23.22923096 21.01539551 -22.56222168 20.36135742 -21.875 19.6875 C-21.19574463 19.01541504 -20.51648926 18.34333008 -19.81665039 17.65087891 C-15.35404178 13.26039434 -10.83093276 8.98580505 -6 5 C-5.10474609 4.24783203 -5.10474609 4.24783203 -4.19140625 3.48046875 C-2.79972739 2.31377262 -1.40083382 1.1556879 0 0 Z " fill="#BEBEB8" transform="translate(186,210)"/>
<path d="M0 0 C0.33 0 0.66 0 1 0 C1.07560603 6.00583308 1.12926927 12.01137399 1.16479492 18.01757812 C1.1796442 20.04985391 1.19992884 22.08209912 1.22631836 24.11425781 C1.42467124 39.81136015 1.00995422 55.72014012 -3 71 C-3.66 71 -4.32 71 -5 71 C-4.96519531 71.61488281 -4.93039063 72.22976562 -4.89453125 72.86328125 C-4.86746094 73.67152344 -4.84039062 74.47976562 -4.8125 75.3125 C-4.77769531 76.11300781 -4.74289063 76.91351563 -4.70703125 77.73828125 C-5 80 -5 80 -8 83 C-7.34 77.72 -6.68 72.44 -6 67 C-4.515 66.505 -4.515 66.505 -3 66 C-2.90912109 64.74896484 -2.90912109 64.74896484 -2.81640625 63.47265625 C-2.73261719 62.34730469 -2.64882812 61.22195312 -2.5625 60.0625 C-2.48128906 58.96035156 -2.40007812 57.85820312 -2.31640625 56.72265625 C-2.09392875 54.10511228 -1.8222034 51.52777916 -1.5 48.92382812 C-0.92500037 43.78178013 -0.77792556 38.66632395 -0.68359375 33.49609375 C-0.66281265 32.5322023 -0.64203156 31.56831085 -0.62062073 30.57521057 C-0.55581104 27.52937182 -0.49656284 24.48345505 -0.4375 21.4375 C-0.39424938 19.35871624 -0.35063312 17.27994006 -0.30664062 15.20117188 C-0.20020112 10.1341923 -0.09874547 5.06713512 0 0 Z " fill="#AFAEA9" transform="translate(257,124)"/>
<path d="M0 0 C1.175625 0.144375 2.35125 0.28875 3.5625 0.4375 C4.22378906 0.51871094 4.88507813 0.59992188 5.56640625 0.68359375 C7.45658404 0.9293472 9.34122551 1.21784754 11.22265625 1.5234375 C15.46945341 2.05922783 19.59995554 2.19110687 23.875 2.1875 C24.6685791 2.18814453 25.4621582 2.18878906 26.27978516 2.18945312 C31.79634611 2.13958078 36.66611896 1.47141546 42 0 C43.32 0 44.64 0 46 0 C46 0.66 46 1.32 46 2 C44 4 44 4 42.12704468 4.24050903 C40.98787094 4.2338472 40.98787094 4.2338472 39.82568359 4.22705078 C38.53457169 4.22682419 38.53457169 4.22682419 37.21737671 4.22659302 C36.28712677 4.21627045 35.35687683 4.20594788 34.3984375 4.1953125 C33.44683746 4.1924826 32.49523743 4.18965271 31.51480103 4.18673706 C28.46807408 4.17551989 25.42163846 4.15041263 22.375 4.125 C20.31250424 4.11497218 18.25000388 4.10584599 16.1875 4.09765625 C11.12488733 4.07557554 6.0624931 4.0410353 1 4 C0.67 2.68 0.34 1.36 0 0 Z " fill="#B1B2AF" transform="translate(107,320)"/>
<path d="M0 0 C0.33 0.99 0.66 1.98 1 3 C-0.26767077 4.29477062 -1.53926224 5.58570339 -2.8125 6.875 C-3.52019531 7.59429687 -4.22789062 8.31359375 -4.95703125 9.0546875 C-7 11 -7 11 -10 13 C-9.67 13.66 -9.34 14.32 -9 15 C-9.81404297 15.70576172 -9.81404297 15.70576172 -10.64453125 16.42578125 C-11.35996094 17.04839844 -12.07539063 17.67101562 -12.8125 18.3125 C-13.87404297 19.23482422 -13.87404297 19.23482422 -14.95703125 20.17578125 C-16.99730769 21.91134615 -16.99730769 21.91134615 -18.51171875 23.79296875 C-19.00285156 24.19128906 -19.49398437 24.58960938 -20 25 C-22.09301758 24.57543945 -22.09301758 24.57543945 -24 24 C-23.57702637 23.58226318 -23.15405273 23.16452637 -22.71826172 22.73413086 C-20.76776697 20.80466929 -18.82137458 18.87111744 -16.875 16.9375 C-16.20984375 16.28072266 -15.5446875 15.62394531 -14.859375 14.94726562 C-11.14999518 11.25606904 -7.63040325 7.50957256 -4.32861328 3.44750977 C-3 2 -3 2 0 0 Z " fill="#BCBCB5" transform="translate(215,181)"/>
<path d="M0 0 C0.66 0.33 1.32 0.66 2 1 C1.39526855 1.59949463 0.79053711 2.19898926 0.16748047 2.81665039 C-2.10461933 5.07156698 -4.37435213 7.32883378 -6.64257812 9.58764648 C-7.61919504 10.55927737 -8.59671272 11.53000383 -9.57519531 12.49975586 C-16.27923373 19.11542315 -16.27923373 19.11542315 -22.4921875 26.18359375 C-23.31976563 27.11300781 -24.14734375 28.04242188 -25 29 C-25.99 29 -26.98 29 -28 29 C-28.226875 29.639375 -28.45375 30.27875 -28.6875 30.9375 C-30 33 -30 33 -32.625 33.75 C-33.40875 33.8325 -34.1925 33.915 -35 34 C-33.33333333 32.33333333 -31.66666667 30.66666667 -30 29 C-29.443125 28.401875 -28.88625 27.80375 -28.3125 27.1875 C-27 26 -27 26 -25 26 C-24.67 25.01 -24.34 24.02 -24 23 C-22.45117188 21.47241211 -22.45117188 21.47241211 -20.46875 19.83984375 C-15.90701516 15.96949684 -11.70275378 11.81584248 -7.5 7.5625 C-6.77296875 6.83095703 -6.0459375 6.09941406 -5.296875 5.34570312 C-3.52890501 3.56610176 -1.76333622 1.78419082 0 0 Z " fill="#9FA09A" transform="translate(174,78)"/>
<path d="M0 0 C0.66 0 1.32 0 2 0 C2 0.66 2 1.32 2 2 C1.01 2.33 0.02 2.66 -1 3 C-1.33 3.99 -1.66 4.98 -2 6 C-4.109375 7.9375 -4.109375 7.9375 -6.75 10 C-7.61109375 10.680625 -8.4721875 11.36125 -9.359375 12.0625 C-12 14 -12 14 -14.5859375 15.546875 C-21.20542667 19.53142188 -26.64366979 25.493023 -32 31 C-32 28 -32 28 -29.515625 25.1875 C-28.43471385 24.11723822 -27.34579328 23.05501957 -26.25 22 C-25.44175781 21.19949219 -25.44175781 21.19949219 -24.6171875 20.3828125 C-17.08745336 13 -17.08745336 13 -14 13 C-13.67 12.01 -13.34 11.02 -13 10 C-11.07421875 8.53515625 -11.07421875 8.53515625 -8.6875 7.0625 C-5.38205542 4.95855829 -2.72279627 2.83170812 0 0 Z " fill="#63635E" transform="translate(94,122)"/>
<path d="M0 0 C0.66 0 1.32 0 2 0 C2.13277344 0.89203125 2.26554688 1.7840625 2.40234375 2.703125 C2.57894531 3.87359375 2.75554687 5.0440625 2.9375 6.25 C3.11152344 7.41015625 3.28554687 8.5703125 3.46484375 9.765625 C3.90336732 12.78990701 3.90336732 12.78990701 4.52294922 14.84692383 C5.57434559 19.5921974 5.18475562 24.59916569 5.1875 29.4375 C5.19974609 30.56994141 5.21199219 31.70238281 5.22460938 32.86914062 C5.22750977 34.50979492 5.22750977 34.50979492 5.23046875 36.18359375 C5.23457764 37.17931396 5.23868652 38.17503418 5.24291992 39.20092773 C4.98706472 42.14904826 4.23384727 44.32539077 3 47 C2.67 47 2.34 47 2 47 C2.01047363 46.14470703 2.02094727 45.28941406 2.03173828 44.40820312 C2.42945442 22.11648195 2.42945442 22.11648195 0 0 Z " fill="#D9D9D2" transform="translate(222,20)"/>
<path d="M0 0 C1.20662612 3.81427335 0.46048863 6.39949662 -0.47949219 10.25341797 C-1.52894839 15.79112071 -1.48156139 21.44149937 -1.625 27.0625 C-1.66367188 28.30966797 -1.70234375 29.55683594 -1.7421875 30.84179688 C-1.83575358 33.89439017 -1.92149672 36.94698847 -2 40 C-5.09176553 36.90823447 -4.29431578 33.70011816 -4.32226562 29.47460938 C-4.31904297 28.34861328 -4.31582031 27.22261719 -4.3125 26.0625 C-4.32861328 24.97130859 -4.34472656 23.88011719 -4.36132812 22.75585938 C-4.36602225 14.8650307 -3.5791111 7.15822221 0 0 Z " fill="#3C3D38" transform="translate(78,224)"/>
<path d="M0 0 C2.52845528 1.26422764 2.76422764 2.52845528 4 5 C4.66 5.33 5.32 5.66 6 6 C6.33 4.02 6.66 2.04 7 0 C8.74897661 2.62346492 9.6148939 4.49545594 10.5625 7.4375 C10.93568359 8.58025391 10.93568359 8.58025391 11.31640625 9.74609375 C11.94516216 11.8191918 12.49616083 13.89347243 13 16 C11.68 16 10.36 16 9 16 C6.89453125 13.76953125 6.89453125 13.76953125 4.8125 10.8125 C4.11769531 9.84957031 3.42289062 8.88664062 2.70703125 7.89453125 C1.08005656 5.13574808 0.38572135 3.14909818 0 0 Z " fill="#8F908C" transform="translate(69,269)"/>
<path d="M0 0 C0.33 0 0.66 0 1 0 C1.09038099 5.15171623 0.84681133 9.91913204 0 15 C-0.33 15 -0.66 15 -1 15 C-1.33 13.35 -1.66 11.7 -2 10 C-2.928125 10.99 -2.928125 10.99 -3.875 12 C-6 14 -6 14 -8 14 C-8 14.99 -8 15.98 -8 17 C-8.66 17 -9.32 17 -10 17 C-8.64293196 13.36592837 -7.00749128 10.12987933 -5 6.8125 C-4.484375 5.95269531 -3.96875 5.09289062 -3.4375 4.20703125 C-2 2 -2 2 0 0 Z " fill="#B9B9B5" transform="translate(240,144)"/>
<path d="M0 0 C0.33 0.66 0.66 1.32 1 2 C-0.86346118 6.30925399 -3.52139206 8.29394044 -7.37890625 10.69140625 C-9.12294919 11.91369905 -9.12294919 11.91369905 -9.95703125 13.91796875 C-11.260077 16.51917992 -12.90445832 17.88761021 -15.125 19.75 C-16.21167969 20.67039062 -16.21167969 20.67039062 -17.3203125 21.609375 C-17.87460938 22.06828125 -18.42890625 22.5271875 -19 23 C-19.66 22.67 -20.32 22.34 -21 22 C-19.9171875 20.93265625 -19.9171875 20.93265625 -18.8125 19.84375 C-16.12553532 17.12693015 -13.55412275 14.34146156 -11 11.5 C-7.75953857 7.89498666 -4.4516632 4.40372344 -1 1 C-0.67 0.67 -0.34 0.34 0 0 Z " fill="#5A5A56" transform="translate(180,281)"/>
<path d="M0 0 C0.33 0 0.66 0 1 0 C1.68185406 3.45551308 2.34259857 6.91475869 3 10.375 C3.19078125 11.34050781 3.3815625 12.30601563 3.578125 13.30078125 C4.76401738 19.61142286 5.25367791 25.58230124 5 32 C4.34 32 3.68 32 3 32 C-0.58165209 9.19872014 -0.58165209 9.19872014 0 0 Z " fill="#50504C" transform="translate(251,82)"/>
<path d="M0 0 C0 3 0 3 -1.86425781 5.22070312 C-2.71858398 6.06568359 -3.57291016 6.91066406 -4.453125 7.78125 C-5.38253906 8.70550781 -6.31195313 9.62976563 -7.26953125 10.58203125 C-7.7588916 11.0610791 -8.24825195 11.54012695 -8.75244141 12.03369141 C-10.23723678 13.48750311 -11.71125737 14.95155131 -13.18359375 16.41796875 C-21.02269512 24.17056969 -21.02269512 24.17056969 -25 27 C-25.66 26.67 -26.32 26.34 -27 26 C-26.34 25.34 -25.68 24.68 -25 24 C-24.71125 23.319375 -24.4225 22.63875 -24.125 21.9375 C-23.75375 21.298125 -23.3825 20.65875 -23 20 C-22.41057617 19.88277588 -21.82115234 19.76555176 -21.21386719 19.64477539 C-18.12923253 18.74639426 -16.69211813 17.03047188 -14.453125 14.74609375 C-13.60878906 13.89208984 -12.76445312 13.03808594 -11.89453125 12.15820312 C-11.02183594 11.26037109 -10.14914063 10.36253906 -9.25 9.4375 C-8.36183594 8.53580078 -7.47367188 7.63410156 -6.55859375 6.70507812 C-4.36551685 4.47662902 -2.17973956 2.24148407 0 0 Z " fill="#787772" transform="translate(175,53)"/>
<path d="M0 0 C0.71484375 1.63671875 0.71484375 1.63671875 1 4 C-2.90051907 11.87882626 -8.9654805 19.98274025 -17 24 C-15.65037095 21.01247163 -14.11804379 18.8786697 -11.875 16.5 C-7.30260524 11.41742224 -3.6844057 5.74193096 0 0 Z " fill="#A6A6A0" transform="translate(227,252)"/>
<path d="M0 0 C0.66 0.33 1.32 0.66 2 1 C1.52949219 1.44730469 1.05898437 1.89460937 0.57421875 2.35546875 C-2.89122883 5.72046857 -5.57667077 8.79105976 -8 13 C-8.66 13 -9.32 13 -10 13 C-10.04125 13.556875 -10.0825 14.11375 -10.125 14.6875 C-11.46930374 18.24030274 -14.00974189 19.70958953 -17 22 C-17 17.74370447 -14.54932184 15.73941391 -11.875 12.6875 C-11.400625 12.13126953 -10.92625 11.57503906 -10.4375 11.00195312 C-7.12345927 7.15497882 -3.62477055 3.55485657 0 0 Z " fill="#A0A09A" transform="translate(128,185)"/>
<path d="M0 0 C0.33 0 0.66 0 1 0 C1.15159977 4.24479355 1.16906854 7.40297672 0 11.53125 C-1.43412435 16.98270406 -1.21610533 22.40052604 -1.125 28 C-1.11597656 29.06089844 -1.10695313 30.12179687 -1.09765625 31.21484375 C-1.07427524 33.81013638 -1.04150556 36.40494465 -1 39 C-1.33 39 -1.66 39 -2 39 C-4.75006659 26.61230026 -4.24401598 11.97418796 0 0 Z " fill="#7F7E7B" transform="translate(97,230)"/>
<path d="M0 0 C0 3 0 3 -2 6 C-2.268125 6.61875 -2.53625 7.2375 -2.8125 7.875 C-4.43572581 10.77971987 -6.53803361 12.78423025 -9 15 C-9.66 15 -10.32 15 -11 15 C-11 15.99 -11 16.98 -11 18 C-11.99 18.33 -12.98 18.66 -14 19 C-12.62111791 15.02682945 -10.78436958 12.18393796 -8.125 8.9375 C-7.44695312 8.10089844 -6.76890625 7.26429688 -6.0703125 6.40234375 C-4.1359826 4.15779113 -2.12510154 2.06315912 0 0 Z " fill="#B0B0A9" transform="translate(82,160)"/>
<path d="M0 0 C0 4.91245568 -3.70849704 7.59878027 -7 11 C-10.03932261 13.75659493 -12.04270003 15.14189074 -16 16 C-11.17917294 10.03739811 -5.77505724 5.03320206 0 0 Z " fill="#C6C5BF" transform="translate(99,144)"/>
<path d="M0 0 C0.33 0 0.66 0 1 0 C1.02505615 0.74983154 1.0501123 1.49966309 1.07592773 2.2722168 C1.19358641 5.7440816 1.31552572 9.21578423 1.4375 12.6875 C1.47681641 13.86634766 1.51613281 15.04519531 1.55664062 16.25976562 C1.83921505 24.19358612 2.32754051 32.08973117 3 40 C0.19401835 37.19401835 0.01241041 35.38845919 -0.11352539 31.4465332 C-0.1133674 29.98127301 -0.10773819 28.51600676 -0.09765625 27.05078125 C-0.0962413 26.27816452 -0.09482635 25.50554779 -0.09336853 24.70951843 C-0.08777466 22.24380611 -0.07522333 19.77818485 -0.0625 17.3125 C-0.05748421 15.63997527 -0.05292144 13.96744912 -0.04882812 12.29492188 C-0.03780724 8.19657954 -0.02054684 4.09830521 0 0 Z " fill="#80817B" transform="translate(35,207)"/>
<path d="M0 0 C1 2 1 2 0.25 4.375 C-1 7 -1 7 -2.37890625 8.8046875 C-4.25086874 11.33973068 -5.69985979 13.97307161 -7.1875 16.75 C-7.98220703 18.22726562 -7.98220703 18.22726562 -8.79296875 19.734375 C-9.19128906 20.48203125 -9.58960938 21.2296875 -10 22 C-11 20 -11 20 -10.21484375 17.4609375 C-7.51172428 10.93046539 -4.60509603 5.38052457 0 0 Z " fill="#B7B8B0" transform="translate(154,241)"/>
<path d="M0 0 C0.33 0.66 0.66 1.32 1 2 C0.67 2.66 0.34 3.32 0 4 C-0.66 4 -1.32 4 -2 4 C-2.3403125 4.86625 -2.3403125 4.86625 -2.6875 5.75 C-5.19800417 10.05372144 -9.6310192 12.75646932 -14 15 C-14.66 14.67 -15.32 14.34 -16 14 C-14.08539961 12.22688737 -12.16842507 10.45646638 -10.25 8.6875 C-9.44175781 7.93823242 -9.44175781 7.93823242 -8.6171875 7.17382812 C-5.84396048 4.62043007 -3.07809771 2.18903551 0 0 Z " fill="#42443F" transform="translate(166,130)"/>
<path d="M0 0 C0.33 0 0.66 0 1 0 C1.48350422 7.89723556 -0.32335279 15.33532703 -2 23 C-2.66 23 -3.32 23 -4 23 C-4.23136637 17.4978184 -3.4350346 12.86146222 -2 7.5625 C-1.80921875 6.83095703 -1.6184375 6.09941406 -1.421875 5.34570312 C-0.95549597 3.56180334 -0.47881722 1.78060155 0 0 Z " fill="#565653" transform="translate(40,184)"/>
<path d="M0 0 C0.33 0.66 0.66 1.32 1 2 C-3.60136502 7.53601728 -8.46398272 12.39863498 -14 17 C-14 14 -14 14 -12.0625 11.875 C-11.04193705 10.91637873 -10.02104697 9.95810572 -9 9 C-7.39180447 7.39987234 -5.78787582 5.79544858 -4.1875 4.1875 C-2.09375 2.09375 -2.09375 2.09375 0 0 Z " fill="#3E3F3B" transform="translate(113,176)"/>
<path d="M0 0 C0.80859375 1.640625 0.80859375 1.640625 1 4 C-0.58570661 6.12217932 -2.09290258 7.8833556 -3.9375 9.75 C-4.41896484 10.25660156 -4.90042969 10.76320313 -5.39648438 11.28515625 C-6.58653954 12.53412504 -7.79186613 13.7685103 -9 15 C-9.99 14.67 -10.98 14.34 -12 14 C-11.55269531 13.49210937 -11.10539063 12.98421875 -10.64453125 12.4609375 C-7.03713058 8.35357725 -3.47885075 4.21678879 0 0 Z " fill="#40403D" transform="translate(187,107)"/>
<path d="M0 0 C0.66015625 1.75 0.66015625 1.75 1 4 C-1.69789553 9.37479577 -5.85982812 13.06275893 -11 16 C-9.32076975 12.19866558 -6.88537166 9.02917298 -4.375 5.75 C-3.95476562 5.19570313 -3.53453125 4.64140625 -3.1015625 4.0703125 C-2.07061281 2.71133337 -1.03570089 1.35536165 0 0 Z " fill="#51524D" transform="translate(200,256)"/>
<path d="M0 0 C0.33 0.99 0.66 1.98 1 3 C0.01 3.33 -0.98 3.66 -2 4 C-2.2475 4.5775 -2.495 5.155 -2.75 5.75 C-4.65600261 9.18080471 -7.76233148 10.88772428 -11 13 C-11.66 12.67 -12.32 12.34 -13 12 C-11.71451591 10.66070495 -10.42141845 9.32871357 -9.125 8 C-8.04605469 6.88625 -8.04605469 6.88625 -6.9453125 5.75 C-5 4 -5 4 -3 4 C-2.67 3.01 -2.34 2.02 -2 1 C-1.34 0.67 -0.68 0.34 0 0 Z " fill="#444440" transform="translate(163,205)"/>
<path d="M0 0 C-0.54269531 0.47050781 -1.08539063 0.94101563 -1.64453125 1.42578125 C-2.71767578 2.35970703 -2.71767578 2.35970703 -3.8125 3.3125 C-4.52019531 3.92738281 -5.22789062 4.54226562 -5.95703125 5.17578125 C-7.99730769 6.91134615 -7.99730769 6.91134615 -9.51171875 8.79296875 C-10.00285156 9.19128906 -10.49398437 9.58960938 -11 10 C-13.1875 9.6875 -13.1875 9.6875 -15 9 C-4.89320388 -1.63106796 -4.89320388 -1.63106796 0 0 Z " fill="#D4D5CE" transform="translate(206,196)"/>
<path d="M0 0 C0.66 0.33 1.32 0.66 2 1 C0.92173635 2.27513763 -0.16285519 3.54492569 -1.25 4.8125 C-1.85328125 5.52019531 -2.4565625 6.22789063 -3.078125 6.95703125 C-4.97224549 8.97049673 -6.60933792 10.60544712 -9 12 C-10.32 11.67 -11.64 11.34 -13 11 C-8.71 7.37 -4.42 3.74 0 0 Z " fill="#494945" transform="translate(137,88)"/>
<path d="M0 0 C0.66 0 1.32 0 2 0 C1.67 7.26 1.34 14.52 1 22 C0.67 22 0.34 22 0 22 C-0.33 16.72 -0.66 11.44 -1 6 C-1.99 6.66 -2.98 7.32 -4 8 C-2.66666667 5.33333333 -1.33333333 2.66666667 0 0 Z " fill="#7E7E7D" transform="translate(206,38)"/>
<path d="M0 0 C0.33 0 0.66 0 1 0 C1.22656265 3.89499707 1.42804389 7.7909025 1.625 11.6875 C1.68945312 12.79029297 1.75390625 13.89308594 1.8203125 15.02929688 C1.871875 16.09599609 1.9234375 17.16269531 1.9765625 18.26171875 C2.02893066 19.24100342 2.08129883 20.22028809 2.13525391 21.22924805 C1.98934824 24.21820723 1.26054534 26.30467011 0 29 C-0.33 29 -0.66 29 -1 29 C-0.67 19.43 -0.34 9.86 0 0 Z " fill="#BBBBB4" transform="translate(225,38)"/>
<path d="M0 0 C0.66 0 1.32 0 2 0 C1.77139942 1.46184058 1.51629608 2.91955419 1.25 4.375 C1.11078125 5.18710938 0.9715625 5.99921875 0.828125 6.8359375 C0 9 0 9 -2 10.125 C-2.66 10.41375 -3.32 10.7025 -4 11 C-5.28254644 13.53770003 -5.28254644 13.53770003 -6 16 C-6.66 16 -7.32 16 -8 16 C-6.72232136 11.35389584 -4.72872573 7.72706966 -2.12109375 3.734375 C-0.9516167 1.99487282 -0.9516167 1.99487282 0 0 Z " fill="#595A56" transform="translate(212,236)"/>
<path d="M0 0 C0 3 0 3 -1.4375 4.5 C-1.953125 4.995 -2.46875 5.49 -3 6 C-3.33 6.99 -3.66 7.98 -4 9 C-5.77734375 10.421875 -5.77734375 10.421875 -7.9375 11.75 C-8.64777344 12.19859375 -9.35804688 12.6471875 -10.08984375 13.109375 C-10.72019531 13.40328125 -11.35054687 13.6971875 -12 14 C-12.66 13.67 -13.32 13.34 -14 13 C-9.38 8.71 -4.76 4.42 0 0 Z " fill="#ADACA6" transform="translate(180,141)"/>
<path d="M0 0 C5.00890086 0.61512818 10.00632136 1.2717552 15 2 C15 2.66 15 3.32 15 4 C10.38 4 5.76 4 1 4 C0.67 2.68 0.34 1.36 0 0 Z " fill="#C9CAC4" transform="translate(107,320)"/>
<path d="M0 0 C0.33 1.32 0.66 2.64 1 4 C-5.435 9.94 -5.435 9.94 -12 16 C-12.66 15.67 -13.32 15.34 -14 15 C-12.73542969 13.75283203 -12.73542969 13.75283203 -11.4453125 12.48046875 C-10.33840925 11.38294603 -9.2316457 10.28528241 -8.125 9.1875 C-7.56941406 8.64029297 -7.01382813 8.09308594 -6.44140625 7.52929688 C-5.90644531 6.99755859 -5.37148437 6.46582031 -4.8203125 5.91796875 C-4.32805176 5.43094482 -3.83579102 4.9439209 -3.32861328 4.44213867 C-1.77411511 2.82996499 -1.77411511 2.82996499 0 0 Z " fill="#ACACA7" transform="translate(195,125)"/>
<path d="M0 0 C0.66 0.33 1.32 0.66 2 1 C1.55269531 1.43570313 1.10539063 1.87140625 0.64453125 2.3203125 C-3.14521536 6.05349573 -6.66459583 9.856013 -10 14 C-11.32 13.67 -12.64 13.34 -14 13 C-13.15695313 12.22914063 -12.31390625 11.45828125 -11.4453125 10.6640625 C-10.33851968 9.65106568 -9.23175006 8.63804353 -8.125 7.625 C-7.56941406 7.11710938 -7.01382813 6.60921875 -6.44140625 6.0859375 C-4.25988219 4.0883974 -2.09183907 2.09183907 0 0 Z " fill="#53544F" transform="translate(190,180)"/>
<path d="M0 0 C0.33 0 0.66 0 1 0 C1.75477891 6.03823129 -0.738128 9.25156995 -4 14 C-4.33 14.66 -4.66 15.32 -5 16 C-5.66 16 -6.32 16 -7 16 C-5.35433477 10.31497465 -2.70967216 5.23318364 0 0 Z " fill="#9F9F99" transform="translate(242,224)"/>
<path d="M0 0 C0 0.99 0 1.98 0 3 C-1.65848177 4.01351664 -3.32665961 5.01120795 -5 6 C-6.051875 7.3303125 -6.051875 7.3303125 -7.125 8.6875 C-7.74375 9.450625 -8.3625 10.21375 -9 11 C-9.99 11 -10.98 11 -12 11 C-10.58590577 7.60470083 -8.97643772 5.94087183 -6 3.8125 C-4.948125 3.04873047 -4.948125 3.04873047 -3.875 2.26953125 C-2 1 -2 1 0 0 Z " fill="#5D5D5A" transform="translate(145,148)"/>
<path d="M0 0 C0.33 0.66 0.66 1.32 1 2 C-1.16252661 6.86568488 -4.93525257 9.75933835 -9 13 C-9.66 12.67 -10.32 12.34 -11 12 C-7.37 8.04 -3.74 4.08 0 0 Z " fill="#A9AAA4" transform="translate(190,61)"/>
<path d="M0 0 C2.52845528 1.26422764 2.76422764 2.52845528 4 5 C4.66 5.33 5.32 5.66 6 6 C6.33 4.02 6.66 2.04 7 0 C9.4294516 3.6441774 9.16179575 5.71241272 9 10 C6.03874657 8.62513234 3.39878817 7.23335451 1 5 C0.25 2.3125 0.25 2.3125 0 0 Z " fill="#A5A5A1" transform="translate(69,269)"/>
<path d="M0 0 C0.66 0.33 1.32 0.66 2 1 C-3.91684902 8.68490153 -3.91684902 8.68490153 -8.4375 10 C-9.283125 10 -10.12875 10 -11 10 C-7.50640535 6.40365256 -3.88901869 3.16548033 0 0 Z " fill="#4A4A45" transform="translate(122,100)"/>
<path d="M0 0 C0 3 0 3 -2.40625 5.69921875 C-3.4299968 6.70302243 -4.4616054 7.69885649 -5.5 8.6875 C-6.02464844 9.19861328 -6.54929688 9.70972656 -7.08984375 10.23632812 C-8.38660904 11.49772708 -9.69246117 12.74977212 -11 14 C-11.66 13.67 -12.32 13.34 -13 13 C-11.39979779 11.20465118 -9.79509897 9.41370539 -8.1875 7.625 C-7.73568359 7.11710937 -7.28386719 6.60921875 -6.81835938 6.0859375 C-4.64829248 3.67827204 -2.71407209 1.80938139 0 0 Z " fill="#E4E4DD" transform="translate(182,72)"/>
<path d="M0 0 C0.33 0 0.66 0 1 0 C1 5.94 1 11.88 1 18 C0.67 18 0.34 18 0 18 C-0.33 13.71 -0.66 9.42 -1 5 C-2.98 5.99 -2.98 5.99 -5 7 C-1.125 1.125 -1.125 1.125 0 0 Z " fill="#DEDEDA" transform="translate(205,43)"/>
<path d="M0 0 C0.99 0.33 1.98 0.66 3 1 C-4.11389522 8.66742597 -4.11389522 8.66742597 -9 10 C-7.63491499 6.88271632 -6.13080302 4.91336262 -3.5625 2.6875 C-2.96566406 2.15511719 -2.36882812 1.62273437 -1.75390625 1.07421875 C-1.17511719 0.71972656 -0.59632813 0.36523438 0 0 Z " fill="#333430" transform="translate(168,294)"/>
<path d="M0 0 C0.33 0 0.66 0 1 0 C1.20674944 5.78898419 0.59162079 10.42932723 -1 16 C-1.33 16 -1.66 16 -2 16 C-2.2358396 10.22192976 -1.86783046 5.48675196 0 0 Z " fill="#ACACA7" transform="translate(97,230)"/>
<path d="M0 0 C0.33 0 0.66 0 1 0 C1.33663062 3.70293685 1.47736015 5.39534381 -0.875 8.375 C-3 10 -3 10 -5 10 C-3.66654496 6.40992874 -2.1056769 3.20429093 0 0 Z " fill="#4C4C49" transform="translate(89,203)"/>
<path d="M0 0 C0.33 0 0.66 0 1 0 C0.91297874 2.27155498 0.80480478 4.54230743 0.6875 6.8125 C0.62949219 8.07707031 0.57148438 9.34164062 0.51171875 10.64453125 C0 14 0 14 -1.54296875 15.94921875 C-2.02378906 16.29597656 -2.50460938 16.64273438 -3 17 C-2.69268013 14.35346869 -2.37940678 11.707885 -2.0625 9.0625 C-1.97548828 8.30775391 -1.88847656 7.55300781 -1.79882812 6.77539062 C-1.11328125 1.11328125 -1.11328125 1.11328125 0 0 Z " fill="#7F7F7A" transform="translate(252,190)"/>
<path d="M0 0 C1.07310858 3.27185553 0.89263102 5.42947592 0.0625 8.75 C-0.22947266 9.94882813 -0.22947266 9.94882813 -0.52734375 11.171875 C-0.68332031 11.77515625 -0.83929688 12.3784375 -1 13 C-1.66 13 -2.32 13 -3 13 C-2.88490339 11.58249437 -2.75746342 10.16598831 -2.625 8.75 C-2.55539063 7.96109375 -2.48578125 7.1721875 -2.4140625 6.359375 C-1.98492887 3.914123 -1.21399362 2.15163097 0 0 Z " fill="#5F5F5C" transform="translate(78,224)"/>
<path d="M0 0 C0 0.66 0 1.32 0 2 C-0.99 2 -1.98 2 -3 2 C-3.226875 2.763125 -3.45375 3.52625 -3.6875 4.3125 C-5.26731682 7.54736301 -6.83282717 8.41641358 -10 10 C-10.33 9.34 -10.66 8.68 -11 8 C-10.071875 7.236875 -9.14375 6.47375 -8.1875 5.6875 C-6.44038358 4.24047652 -4.82793008 2.82178472 -3.25 1.1875 C-2 0 -2 0 0 0 Z " fill="#474845" transform="translate(125,166)"/>
<path d="M0 0 C0.66 0 1.32 0 2 0 C2.33 4.29 2.66 8.58 3 13 C0.73437327 10.73437327 0.05537251 9.15839295 -0.09765625 5.95703125 C-0.06510417 3.97135417 -0.03255208 1.98567708 0 0 Z " fill="#A6A7A0" transform="translate(35,234)"/>
<path d="M0 0 C0.33 1.32 0.66 2.64 1 4 C-3.455 7.96 -3.455 7.96 -8 12 C-8 8.03869629 -6.65122875 7.17085599 -4 4.3125 C-3.2575 3.50425781 -2.515 2.69601563 -1.75 1.86328125 C-1.1725 1.24839844 -0.595 0.63351563 0 0 Z " fill="#575854" transform="translate(209,160)"/>
<path d="M0 0 C1 2 1 2 0.375 4.4375 C-1.27706844 7.51635481 -2.91798591 8.45899296 -6 10 C-4.6302836 6.00499382 -2.74277578 3.19990508 0 0 Z " fill="#B0B0AA" transform="translate(154,241)"/>
<path d="M0 0 C0.33 0 0.66 0 1 0 C1.36666667 7.33333333 1.36666667 7.33333333 -0.375 10.5 C-2 12 -2 12 -4 12 C-2.66666667 8 -1.33333333 4 0 0 Z " fill="#4C4D48" transform="translate(235,118)"/>
<path d="M0 0 C0 0.66 0 1.32 0 2 C-3.30350614 5.11997802 -4.32409833 6 -9 6 C-9 5.34 -9 4.68 -9 4 C-2.25 0 -2.25 0 0 0 Z " fill="#9B9B94" transform="translate(176,308)"/>
<path d="M0 0 C0.93423645 3.01031744 1.04449911 3.86650268 0 7 C-0.66 7 -1.32 7 -2 7 C-2.33 8.98 -2.66 10.96 -3 13 C-4.15019009 9.54942972 -3.80497206 8.69840756 -2.625 5.375 C-2.34914062 4.57835937 -2.07328125 3.78171875 -1.7890625 2.9609375 C-1 1 -1 1 0 0 Z " fill="#B3B3AB" transform="translate(232,189)"/>
<path d="M0 0 C2.97 0 5.94 0 9 0 C9 0.99 9 1.98 9 3 C2.84765625 2.4140625 2.84765625 2.4140625 1 2 C0.67 1.34 0.34 0.68 0 0 Z " fill="#9F9F9B" transform="translate(150,303)"/>
<path d="M0 0 C0 3.5747073 -0.55352838 4.46916729 -3 7 C-5.6875 7.75 -5.6875 7.75 -8 8 C-5.58443874 4.80800833 -3.31996462 2.25283313 0 0 Z " fill="#AEACA7" transform="translate(99,144)"/>
<path d="M0 0 C0.75 1.6875 0.75 1.6875 1 4 C-0.9375 6.75 -0.9375 6.75 -3 9 C-3.66 8.67 -4.32 8.34 -5 8 C-3.8141763 4.62496331 -2.72426311 2.35277269 0 0 Z " fill="#4B4C48" transform="translate(187,107)"/>
<path d="M0 0 C0.66 0.33 1.32 0.66 2 1 C2 2.65 2 4.3 2 6 C-3.75 4.25 -3.75 4.25 -6 2 C-3.03 2.495 -3.03 2.495 0 3 C0 2.01 0 1.02 0 0 Z " fill="#898A87" transform="translate(124,302)"/>
<path d="M0 0 C0.33 0 0.66 0 1 0 C1.36504603 1.58086048 1.71660506 3.16483907 2.0625 4.75 C2.25972656 5.63171875 2.45695312 6.5134375 2.66015625 7.421875 C2.99825872 9.98679028 2.81158635 11.57091639 2 14 C-0.28062828 10.57905758 -0.21925007 9.31812778 -0.125 5.3125 C-0.10695313 4.31863281 -0.08890625 3.32476562 -0.0703125 2.30078125 C-0.04710938 1.54152344 -0.02390625 0.78226562 0 0 Z " fill="#C4C5BE" transform="translate(121,290)"/>
<path d="M0 0 C0.33 0.66 0.66 1.32 1 2 C-0.4726862 5.27263601 -1.42695432 6.72014048 -4.6875 8.3125 C-5.450625 8.539375 -6.21375 8.76625 -7 9 C-6.02180976 7.68677212 -5.0424189 6.37443848 -4.0625 5.0625 C-3.51722656 4.33160156 -2.97195312 3.60070312 -2.41015625 2.84765625 C-1 1 -1 1 0 0 Z " fill="#B4B5AD" transform="translate(209,276)"/>
<path d="M0 0 C0 3.19610552 -0.54671542 4.41717626 -2 7.1875 C-2.37125 7.90292969 -2.7425 8.61835938 -3.125 9.35546875 C-3.41375 9.89816406 -3.7025 10.44085938 -4 11 C-4.65234375 9.234375 -4.65234375 9.234375 -5 7 C-4.00390625 5.078125 -4.00390625 5.078125 -2.5625 3.25 C-2.08941406 2.63640625 -1.61632812 2.0228125 -1.12890625 1.390625 C-0.75636719 0.93171875 -0.38382813 0.4728125 0 0 Z " fill="#757672" transform="translate(135,234)"/>
<path d="M0 0 C0.33 0 0.66 0 1 0 C1.08121924 1.60332791 1.13929134 3.20784026 1.1875 4.8125 C1.23970703 6.15248047 1.23970703 6.15248047 1.29296875 7.51953125 C0.95081002 10.41647515 0.24606427 11.22555028 -2 13 C-1.48041715 8.62065881 -0.94324258 4.31196609 0 0 Z " fill="#C5C4BF" transform="translate(223,68)"/>
<path d="M0 0 C0.8125 1.6875 0.8125 1.6875 1 4 C-1.4375 6.75 -1.4375 6.75 -4 9 C-4 5.00095031 -2.27413033 3.19799578 0 0 Z " fill="#959490" transform="translate(227,252)"/>
<path d="M0 0 C0.33 0 0.66 0 1 0 C1.36923077 7.50769231 1.36923077 7.50769231 -0.5 10 C-0.995 10.33 -1.49 10.66 -2 11 C-1.125 3.375 -1.125 3.375 0 0 Z " fill="#767673" transform="translate(40,184)"/>
<path d="M0 0 C1.98 0.66 3.96 1.32 6 2 C6 2.99 6 3.98 6 5 C4.68 5 3.36 5 2 5 C1.34 3.35 0.68 1.7 0 0 Z " fill="#515351" transform="translate(76,280)"/>
<path d="M0 0 C0 3.58534593 -1.02362045 5.07495826 -3 8 C-3.33 8 -3.66 8 -4 8 C-4.25 5.6875 -4.25 5.6875 -4 3 C-2 1.1875 -2 1.1875 0 0 Z " fill="#6C6D68" transform="translate(109,207)"/>
<path d="M0 0 C0.66 0.99 1.32 1.98 2 3 C-0.31 4.65 -2.62 6.3 -5 8 C-3.62845496 5.04590299 -2.01136276 2.55991624 0 0 Z " fill="#A6A6A1" transform="translate(196,53)"/>
</svg>
