<svg viewBox="0 0 100 100" xmlns="http://www.w3.org/2000/svg" width="100" height="100">
  <!-- Background -->
  <rect width="100" height="100" fill="#FDFAEC"/>
  
  <!-- Optimized Funmiano Logo from original ianologo.svg -->
  <!-- Simplified for web display with proper scaling -->
  <g transform="scale(0.31, 0.31) translate(16, 0)">
    <!-- Original complex paths scaled down -->
    <path d="M0 0 C1.65 0 3.3 0 5 0 C8.14 6.42 10.13 12.72 11.69 19.69 C17.19 54.01 15.46 83.77 3 102 C-0.75 105.76 -2.29 108.58 -4 111.38 C-14.49 128.01 -28.88 142.73 -44.29 154.86 C-58.21 166.52 -62.92 170.36 -67.71 174.14 L-80 185 C-91.47 194.78 -98.73 202.68 -102 213 C-112.55 228.40 -115.39 239.48 -115.31 252.81 C-114.50 269.28 -107.29 288.03 -93.59 304.13 L-84 308 C-85.40 303.89 -86 302 -91.33 284.49 C-89.80 268.83 -85 254 -72 230 C-58.86 222.98 -36.42 195.48 -33 192 C-28.44 187.88 -21.48 181.65 -5.46 165.71 C2.69 157.44 5.06 153.88 8 151 C15.94 136.19 22.86 124.65 25 118 C28.88 110.13 34.13 79.38 35 69 C39.03 73.33 40 82 43.94 92.38 C46.80 109.24 47.17 117.53 47.20 126.02 C47.31 147.36 45.61 180.67 44.51 188.27 C39.04 209.83 34.46 221.89 27.93 234.20 C23.11 248.70 19.14 251.87 16 255 C7.45 267.09 3.47 272.13 -1 277 C-12.51 290.21 -21.36 299.14 -32 306 L-43 314 C-47.11 317.05 -51.65 318.27 -56.5 319.63 C-78.71 325.99 -98.99 322.75 -118 315 C-122 312 -126.25 309.81 -128.39 308.77 C-135.71 303.67 -141.19 298.63 -142.91 297.01 C-163.33 277.48 -173.53 254.08 -174.32 225.85 C-174.44 216.88 -174.62 203.91 -170 184 C-168 183.01 -166 181 -166 181 C-165.85 173.32 -163.37 168.33 -159.58 164.61 C-147.25 149.56 -136.20 137.90 -132 135 L-129 132 C-118.77 124.80 -112.10 117.44 -110.13 117.44 C-92.36 103.85 -80.09 94.02 -68 84 C-59.88 77.06 -59.03 74.86 -58 73 C-53.17 71.76 -51.79 70.11 -49.59 67.85 C-44.5 62.63 -39.41 57.41 -32.83 51.41 C-28 45.21 -24.64 39.81 -22.63 37.19 C-13.19 22.86 -10 20 -7.99 14.40 C-4.40 7.46 -2.31 4.10 0 0 Z" fill="#080A08"/>
  </g>
</svg>
